<svg id="Layer_1" data-name="Layer 1" xmlns="http://www.w3.org/2000/svg" viewBox="0 0 192 160.766"><defs><style>.cls-1{fill:#f7f9fb;}</style></defs><path class="cls-1" d="M155.345,19.546A10.06,10.06,0,0,0,148.992.455L113.456,12.293A25.171,25.171,0,0,0,66.63,25.072a26.719,26.719,0,0,0,.157,2.763L28.232,40.646a10.05,10.05,0,1,0,6.384,19.059L77.228,45.512a26.748,26.748,0,0,0,4.528,2.575v102.58A10.048,10.048,0,0,0,91.8,160.714H151.98a10.4,10.4,0,0,0,10.227-9.328,10.046,10.046,0,0,0-10.039-10.767H101.852V48.087a25.157,25.157,0,0,0,13.9-15.385l39.593-13.156Zm-25.91,70.835,22.733-39,22.732,39Zm22.733,30.232c19.749,0,36.171-10.675,39.562-24.773.816-3.454-.314-7-2.1-10.079L159.735,34.518a8.775,8.775,0,0,0-15.135,0L114.709,85.792c-1.79,3.077-2.92,6.625-2.1,10.079C116,109.938,132.418,120.613,152.168,120.613Z" transform="translate(0 0.051)"/><path class="cls-1" d="M34.939,101.413a2.382,2.382,0,0,1,3.7-2.954l28.289,28.273v-8.273a38.242,38.242,0,0,0-11.2-27.04L40.231,75.927a23.084,23.084,0,0,0-32.642-.015l-.822.822A23.09,23.09,0,0,0,0,93.062a22.393,22.393,0,0,0,2.45,10.249,2.268,2.268,0,0,0,1.389,1.15l16.732,5.02a1.378,1.378,0,0,1,.956,1.52,1.4,1.4,0,0,1-1.4,1.169H15.357a2.389,2.389,0,0,0-1.688,4.078l3.347,3.346a2.459,2.459,0,0,0,1,.6l12.1,3.63a1.375,1.375,0,0,1-.411,2.689,1.867,1.867,0,0,0-1.157,3.436,38.2,38.2,0,0,0,20.765,6.125H59.483l8.5,8.5a3.577,3.577,0,0,0,5.058-5.058L34.924,101.413Z" transform="translate(0 0.051)"/></svg>